<svg xmlns="http://www.w3.org/2000/svg" viewBox="0 0 2382.02 452.62"><defs><style>.cls-1{fill:#093554;}.cls-2{fill:#f8ab1d;}</style></defs><title>Artboard 12</title><g id="TrueLayer_Logo_-_Original" data-name="TrueLayer Logo - Original"><g id="Original_Horizontal" data-name="Original Horizontal"><path class="cls-1" d="M701.3,120.47H559.49a10.75,10.75,0,0,0-10.75,10.7v7a10.76,10.76,0,0,0,10.75,10.7h49.1a6.09,6.09,0,0,1,6,6.09v165a11.86,11.86,0,0,0,11.83,11.83h7.72A11.86,11.86,0,0,0,646,319.89V154.94a6.09,6.09,0,0,1,6.06-6.09h49.23a10.75,10.75,0,0,0,10.74-10.69v-7A10.75,10.75,0,0,0,701.3,120.47Z"/><path class="cls-1" d="M1150.35,132.55a12,12,0,0,0-12-12h-7.8a12,12,0,0,0-12,12l0,119.11c0,29.88-19.62,53.11-50.7,53.11-30.78,0-50.1-23.54-50.1-53.71l0-118.51a12,12,0,0,0-11.95-12h-7.81a12,12,0,0,0-12,12V253.17C986.19,299,1020.6,335,1068,335c47.68,0,82.38-35.91,82.38-81.78Z"/><path class="cls-1" d="M1548.42,303.84l-70.88,0a6.07,6.07,0,0,1-6-6V132.41a11.92,11.92,0,0,0-11.89-11.88h-7.76A11.92,11.92,0,0,0,1440,132.42l.12,188.07a11.74,11.74,0,0,0,11.66,11.45l96.62,0A10.61,10.61,0,0,0,1559,321.34v-6.91A10.62,10.62,0,0,0,1548.42,303.84Z"/><path class="cls-1" d="M877.11,246.75a.22.22,0,0,1,.11-.31c26.13-10.61,44.43-33.49,44.43-61.17,0-35.91-29.57-64.58-65.79-64.58H780a12,12,0,0,0-11.94,11.93v5.63h0V320A12,12,0,0,0,780,331.92h7.18A12,12,0,0,0,799.11,320l0-61.08v-3.58a6.07,6.07,0,0,1,6-6.06h37.36a3.39,3.39,0,0,1,3.13,1.73l38.81,74.89a11.86,11.86,0,0,0,16.08,4.58l6.55-3.64a12.1,12.1,0,0,0,4.68-16.4Zm-23.66-23.46h-47.7a6.07,6.07,0,0,1-6-5.91V159.6h0V156a6.07,6.07,0,0,1,5.94-6.06h47c20,0,37.81,16.31,37.61,36.27C890.07,206.89,873,223.29,853.45,223.29Z"/><path class="cls-1" d="M1353.61,303.81l-84.12.06a6.07,6.07,0,0,1-6-6V293.1h0v-48a6.08,6.08,0,0,1,6-6.08l69.65,0a10.73,10.73,0,0,0,10.7-10.69v-7a10.74,10.74,0,0,0-10.7-10.7l-69.61,0a6.1,6.1,0,0,1-6.09-6V158.71h0v-3.58a6.09,6.09,0,0,1,6-6.09l83.9-.07a10.72,10.72,0,0,0,10.7-10.7v-7a10.73,10.73,0,0,0-10.7-10.7l-109.44.1a11.72,11.72,0,0,0-11.61,11.53v188a11.75,11.75,0,0,0,11.67,11.71h109.54a10.63,10.63,0,0,0,10.6-10.6v-6.92A10.63,10.63,0,0,0,1353.61,303.81Z"/><path class="cls-1" d="M2154,303.43l-84.12.06a6.09,6.09,0,0,1-6-6v-4.73h0v-48a6.1,6.1,0,0,1,6.05-6.09l69.65,0a10.72,10.72,0,0,0,10.69-10.7v-7a10.72,10.72,0,0,0-10.69-10.7l-69.62,0a6.09,6.09,0,0,1-6.08-6V158.33h0v-3.58a6.09,6.09,0,0,1,6.05-6.09l83.9-.07a10.73,10.73,0,0,0,10.7-10.7v-7a10.73,10.73,0,0,0-10.7-10.7l-109.44.09a11.73,11.73,0,0,0-11.61,11.54v188a11.74,11.74,0,0,0,11.67,11.7H2154a10.63,10.63,0,0,0,10.6-10.6V314A10.63,10.63,0,0,0,2154,303.43Z"/><path class="cls-1" d="M1793.73,313.51,1706.44,121a7.07,7.07,0,0,0-5.13-3.32h-3a7.05,7.05,0,0,0-5.13,3.32l-87.61,192.43a11.13,11.13,0,0,0,5.55,14.71l6.61,3a11.17,11.17,0,0,0,14.73-5.56l17.34-38.34a3,3,0,0,1,2.25-1.16h94.66a3.11,3.11,0,0,1,2.83,1.82l17.31,37.78a11.17,11.17,0,0,0,14.73,5.55l6.62-3A11.16,11.16,0,0,0,1793.73,313.51Zm-61.31-53.4h-65.86a3.11,3.11,0,0,1-2.84-4.37l34.56-77.63a1.28,1.28,0,0,1,1-.69h0a1.25,1.25,0,0,1,1,.7h0l34.85,77.61A3.11,3.11,0,0,1,1732.42,260.11Z"/><path class="cls-1" d="M1970.41,128.12l-7.13-5.28a11.75,11.75,0,0,0-16.38,2.44l-52.52,72.93a1.94,1.94,0,0,1-3,.09c-7.52-10.33-52.83-72.89-52.83-72.89a11.74,11.74,0,0,0-16.37-2.44l-7.13,5.28c-4.64,4-4.14,10.2-.82,14.75l62.66,87.23-.08,89.73a11.87,11.87,0,0,0,11.83,11.84h7.73A11.87,11.87,0,0,0,1908.17,320l.06-90,63-87.06C1974.54,138.32,1975,132.1,1970.41,128.12Z"/><path class="cls-1" d="M2337.48,246.27a.22.22,0,0,1,.11-.31c26.14-10.6,44.43-33.49,44.43-61.17,0-35.91-29.57-64.58-65.78-64.58h-75.88a12,12,0,0,0-11.93,11.94V319.5a12,12,0,0,0,11.93,11.94h7.19a12,12,0,0,0,11.94-11.94V254.84a6.09,6.09,0,0,1,6-6.07h37.35a3.41,3.41,0,0,1,3.13,1.74l38.81,74.88a11.86,11.86,0,0,0,16.08,4.59l6.56-3.65a12.09,12.09,0,0,0,4.67-16.4Zm-23.66-23.45h-47.69a6.07,6.07,0,0,1-6-5.92V155.55a6.08,6.08,0,0,1,5.95-6.07h47c20,0,37.8,16.31,37.61,36.28C2350.44,206.41,2333.32,222.82,2313.82,222.82Z"/><path class="cls-2" d="M23.92,344.38,205.63,447.86c15.39,9.2,22.4,2.74,28.73-.09L427.1,337.2c6.86-4.35,11.58-8.11,11.58-15.81s-5.84-11.58-9.34-13.75L377.44,273l49.33-28.63c8-4,16.51-13,16.51-24.3V143.86c0-19.81-11.34-26-16.78-29C426,114.56,237.39,5.73,237.39,5.73c-16.37-10.81-29.75-3.68-35.27,0L12.42,116C3.91,121.79,1.2,128,1.26,134.28c.08,9.49,9.87,16.67,11.21,17.55l49.27,29.28L9.38,213C1.18,218,.6,227.31.6,227.31h0C0,231.48,0,301.6,0,301.6,0,320,1.68,332,23.92,344.38ZM404.46,322.9,219.77,426.29,41.24,325.69l56-32.13,115.88,66.25c3.51,2.51,9.84,2.33,13.15.53l125-72.32Zm15.7-110.34-49.89-30.67L420,152.29ZM233.47,34.28l170.09,99.17-55.8,34.13L233.36,98.25ZM219.73,120l103.19,62.57L219.73,242.12a.16.16,0,0,1-.13,0L114.1,181.2,219.6,120ZM32.8,134.22,206.28,34.05v64.2l-120.4,68Zm54.84,62.34,125.3,72.31a13.75,13.75,0,0,0,13.17.07l120.36-72.12,54.4,33L219.59,333.36,35.06,227.07ZM24.46,251.17,73,278.88,24.46,307.05Z"/></g></g></svg>